<?xml version="1.0" encoding="UTF-8" standalone="no"?>
<svg width="128px" height="128px" viewBox="0 0 128 128" version="1.1" xmlns="http://www.w3.org/2000/svg" xmlns:xlink="http://www.w3.org/1999/xlink">
    <!-- Generator: Sketch 3.8.1 (29687) - http://www.bohemiancoding.com/sketch -->
    <title>Slice 1</title>
    <desc>Created with Sketch.</desc>
    <defs></defs>
    <g id="Page-1" stroke="none" stroke-width="1" fill="none" fill-rule="evenodd">
        <path d="M105.296,88.664 L105.296,70.52 C105.296,67.928 105.152,64.904 105.008,61.736 C104.72,58.712 104.144,55.688 103.424,52.52 C102.56,49.64 101.552,46.76 100.112,43.88 C98.672,41.144 96.944,38.696 94.64,36.536 C92.912,35.096 91.04,33.8 89.024,32.648 C86.864,31.64 84.56,31.064 82.112,31.064 C80.096,31.064 78.368,31.496 76.784,32.36 C75.056,33.224 73.616,34.232 72.464,35.528 C71.024,36.824 69.872,38.264 69.008,39.704 C68,41.288 67.136,42.728 66.56,44.168 C64.976,41.288 62.96,38.84 60.512,36.68 C57.92,34.664 54.752,33.656 50.864,33.656 C47.984,33.656 45.392,34.52 43.376,36.248 C41.072,37.976 39.344,39.848 38.048,41.864 C37.904,38.984 37.76,36.824 37.616,35.528 C37.328,34.232 36.896,33.08 36.32,32.216 C35.744,31.496 35.024,30.92 34.16,30.344 C33.152,29.768 32,29.48 30.704,29.48 C28.4,29.48 26.528,30.2 25.232,31.496 C23.936,32.792 23.36,34.376 23.36,36.248 C23.36,37.832 23.36,39.272 23.504,40.712 C23.504,42.296 23.504,43.88 23.648,45.32 C23.936,53.096 24.08,60.872 24.08,68.648 L24.08,76.136 C24.08,78.44 23.936,81.176 23.648,84.632 C23.504,85.496 23.504,86.216 23.504,86.792 L23.072,88.664 C22.928,89.096 22.928,89.384 22.928,89.672 C22.928,89.96 22.784,90.248 22.784,90.392 C22.64,90.824 22.64,91.256 22.64,91.688 C22.64,92.84 23.216,93.848 24.656,94.712 C26.096,95.576 27.824,96.152 29.984,96.152 C31.424,96.152 32.72,95.72 33.872,95 C35.024,94.28 36.032,93.416 36.896,92.264 C37.472,91.544 37.904,89.816 38.192,86.936 C38.48,84.2 38.624,81.32 38.624,78.152 L38.624,62.6 C38.624,61.448 38.912,60.008 39.488,57.992 C40.064,56.264 40.784,54.392 41.936,52.376 C43.232,50.216 44.672,48.344 46.256,46.616 C47.696,45.032 49.424,44.168 51.152,44.168 C52.304,44.168 53.168,45.032 53.888,46.472 C54.464,47.912 55.04,49.784 55.472,51.944 C55.76,54.248 56.048,56.696 56.192,59.144 L56.48,66.056 L56.768,71.96 C56.768,74.264 56.912,76.28 56.912,78.152 C56.912,80.168 57.056,81.896 57.2,83.336 C57.2,84.776 57.344,85.64 57.344,85.928 C58.208,91.688 60.368,94.424 63.824,94.424 C65.84,94.424 67.856,93.704 69.584,92.264 C71.312,90.968 72.176,89.384 72.176,87.368 C72.176,86.072 72.032,84.776 71.888,83.336 C71.744,82.184 71.744,80.888 71.744,79.448 C71.744,77.288 71.6,75.128 71.6,72.824 L71.6,66.2 C71.6,64.76 71.744,62.744 72.32,60.008 C72.752,57.416 73.472,54.68 74.48,51.944 C75.344,49.352 76.496,47.192 77.936,45.176 C79.376,43.304 80.96,42.296 82.976,42.296 C84.704,42.296 86.144,44.024 87.296,47.336 C88.304,50.648 89.024,54.536 89.6,59.144 C89.888,61.448 90.032,63.608 90.176,65.768 L90.464,71.816 C90.464,73.688 90.608,75.272 90.608,76.568 L90.608,83.624 L90.32,86.216 C90.32,87.08 90.176,87.512 90.176,87.656 C89.888,87.944 89.744,88.088 89.744,88.232 C89.456,88.664 89.024,89.096 88.736,89.384 C88.304,89.96 88.16,90.392 88.16,90.824 C88.16,91.544 88.448,92.264 89.024,92.984 C89.6,93.848 90.176,94.568 91.04,95.144 C91.76,95.864 92.624,96.44 93.488,97.016 C94.352,97.448 95.216,97.736 95.936,97.736 C99.104,97.736 101.408,96.872 102.992,95.144 C104.432,93.56 105.296,91.4 105.296,88.664 L105.296,88.664 Z" id="m-outline" stroke="#000000" stroke-width="7" fill-opacity="0" fill="#FFFFFF"></path>
        <path d="M105.296,82 L105.296,88.664 C105.296,91.4 104.432,93.56 102.992,95.144 C101.408,96.872 99.104,97.736 95.936,97.736 C95.216,97.736 94.352,97.448 93.488,97.016 C92.624,96.44 91.76,95.864 91.04,95.144 C90.176,94.568 89.6,93.848 89.024,92.984 C88.448,92.264 88.16,91.544 88.16,90.824 C88.16,90.392 88.304,89.96 88.736,89.384 C89.024,89.096 89.456,88.664 89.744,88.232 C89.744,88.088 89.888,87.944 90.176,87.656 C90.176,87.512 90.32,87.08 90.32,86.216 L90.608,83.624 L90.608,82 L105.296,82 Z M23.8487267,82 C23.7921852,82.8292053 23.7252763,83.7046841 23.648,84.632 C23.504,85.496 23.504,86.216 23.504,86.792 L23.072,88.664 C22.928,89.096 22.928,89.384 22.928,89.672 C22.928,89.96 22.784,90.248 22.784,90.392 C22.64,90.824 22.64,91.256 22.64,91.688 C22.64,92.84 23.216,93.848 24.656,94.712 C26.096,95.576 27.824,96.152 29.984,96.152 C31.424,96.152 32.72,95.72 33.872,95 C35.024,94.28 36.032,93.416 36.896,92.264 C37.472,91.544 37.904,89.816 38.192,86.936 C38.3591031,85.3485208 38.477728,83.7125635 38.5478746,82 L23.8487267,82 Z M57.0773681,82 C57.1158508,82.4699205 57.1579254,82.9152538 57.2,83.336 C57.2,84.776 57.344,85.64 57.344,85.928 C58.208,91.688 60.368,94.424 63.824,94.424 C65.84,94.424 67.856,93.704 69.584,92.264 C71.312,90.968 72.176,89.384 72.176,87.368 C72.176,86.072 72.032,84.776 71.888,83.336 C71.834791,82.9103278 71.8012431,82.4649944 71.7800913,82 L57.0773681,82 Z" id="Combined-Shape" fill="#DDDDCC"></path>
        <path d="M105.296,82 L105.296,70.52 C105.296,67.928 105.152,64.904 105.008,61.736 C104.72,58.712 104.144,55.688 103.424,52.52 C102.56,49.64 101.552,46.76 100.112,43.88 C98.672,41.144 96.944,38.696 94.64,36.536 C92.912,35.096 91.04,33.8 89.024,32.648 C86.864,31.64 84.56,31.064 82.112,31.064 C80.096,31.064 78.368,31.496 76.784,32.36 C75.056,33.224 73.616,34.232 72.464,35.528 C71.024,36.824 69.872,38.264 69.008,39.704 C68,41.288 67.136,42.728 66.56,44.168 C64.976,41.288 62.96,38.84 60.512,36.68 C57.92,34.664 54.752,33.656 50.864,33.656 C47.984,33.656 45.392,34.52 43.376,36.248 C41.072,37.976 39.344,39.848 38.048,41.864 C37.904,38.984 37.76,36.824 37.616,35.528 C37.328,34.232 36.896,33.08 36.32,32.216 C35.744,31.496 35.024,30.92 34.16,30.344 C33.152,29.768 32,29.48 30.704,29.48 C28.4,29.48 26.528,30.2 25.232,31.496 C23.936,32.792 23.36,34.376 23.36,36.248 C23.36,37.832 23.36,39.272 23.504,40.712 C23.504,42.296 23.504,43.88 23.648,45.32 C23.936,53.096 24.08,60.872 24.08,68.648 L24.08,76.136 C24.08,77.8217894 24.0029089,79.7388521 23.8487267,82 L38.5478746,82 C38.5986249,80.7609822 38.624,79.4818662 38.624,78.152 L38.624,62.6 C38.624,61.448 38.912,60.008 39.488,57.992 C40.064,56.264 40.784,54.392 41.936,52.376 C43.232,50.216 44.672,48.344 46.256,46.616 C47.696,45.032 49.424,44.168 51.152,44.168 C52.304,44.168 53.168,45.032 53.888,46.472 C54.464,47.912 55.04,49.784 55.472,51.944 C55.76,54.248 56.048,56.696 56.192,59.144 L56.48,66.056 L56.768,71.96 C56.768,74.264 56.912,76.28 56.912,78.152 C56.912,79.5789553 56.9841443,80.861622 57.0773681,82 L71.7800913,82 C71.744,81.2065764 71.744,80.3559097 71.744,79.448 C71.744,77.288 71.6,75.128 71.6,72.824 L71.6,66.2 C71.6,64.76 71.744,62.744 72.32,60.008 C72.752,57.416 73.472,54.68 74.48,51.944 C75.344,49.352 76.496,47.192 77.936,45.176 C79.376,43.304 80.96,42.296 82.976,42.296 C84.704,42.296 86.144,44.024 87.296,47.336 C88.304,50.648 89.024,54.536 89.6,59.144 C89.888,61.448 90.032,63.608 90.176,65.768 L90.464,71.816 C90.464,73.688 90.608,75.272 90.608,76.568 L90.608,82 L105.296,82 Z" id="Combined-Shape" fill="#BB0000"></path>
    </g>
</svg>